<svg width="30" height="30" viewBox="0 0 30 30" fill="none" xmlns="http://www.w3.org/2000/svg">
<g clip-path="url(#clip0_45_191)">
<path d="M15 30C6.71531 30 0 23.2847 0 15C0 6.71531 6.71531 0 15 0C23.2847 0 30 6.71531 30 15C30 23.2847 23.2847 30 15 30ZM11.3588 13.5038L15 9.8625L18.6431 13.5056L20.7619 11.3869L15 5.625L9.24 11.385L11.3588 13.5038ZM5.625 15L7.74375 17.1188L9.8625 15L7.74375 12.8812L5.625 15ZM11.3588 16.4963L9.23719 18.6122L9.24 18.615L15 24.375L20.7619 18.6131V18.6122L18.6431 16.4934L15 20.1375L11.3588 16.4963ZM20.1375 15L22.2562 17.1188L24.375 15L22.2562 12.8812L20.1375 15ZM17.1487 14.9981H17.1497L15 12.8494L13.4109 14.4375L13.2281 14.6203L12.8522 14.9972L12.8484 15L12.8522 15.0028L14.9991 17.1506L17.1497 15.0009L17.1506 15L17.1487 14.9991V14.9981Z" fill="white"/>
</g>
<defs>
<clipPath id="clip0_45_191">
<rect width="30" height="30" fill="white"/>
</clipPath>
</defs>
</svg>
