<svg width="30" height="30" viewBox="0 0 30 30" fill="none" xmlns="http://www.w3.org/2000/svg">
<g clip-path="url(#clip0_45_206)">
<path fill-rule="evenodd" clip-rule="evenodd" d="M15 30C6.71531 30 0 23.2847 0 15C0 6.71531 6.71531 0 15 0C23.2847 0 30 6.71531 30 15C30 23.2847 23.2847 30 15 30ZM9.82688 15.84V22.5H15.9666C17.1009 22.5 18.0825 22.3031 18.9122 21.9122C19.7419 21.5194 20.4187 20.9841 20.9447 20.3044C21.4697 19.6256 21.8606 18.8306 22.1166 17.9203C22.3725 17.01 22.5 16.0359 22.5 15C22.5064 14.0135 22.3771 13.0309 22.1156 12.0797C21.8606 11.1703 21.4697 10.3744 20.9438 9.69563C20.4188 9.01594 19.7419 8.48062 18.9122 8.08781C18.0825 7.69687 17.1 7.5 15.9656 7.5H9.82594V13.6969H8.4375V15.84H9.82688ZM12.42 13.6978V9.64313H14.9709C15.9806 9.64313 16.8066 9.77906 17.4497 10.0528C18.0928 10.3256 18.5972 10.7034 18.9638 11.1872C19.3387 11.6902 19.5939 12.2722 19.71 12.8888C19.8413 13.5403 19.9069 14.2434 19.9069 15C19.9114 15.7085 19.8454 16.4158 19.71 17.1113C19.5788 17.7628 19.3303 18.33 18.9638 18.8128C18.5972 19.2966 18.0919 19.6744 17.4497 19.9472C16.8066 20.2209 15.9806 20.3569 14.9709 20.3569H12.42V15.84H16.4644V13.6978H12.42V13.6978Z" fill="white"/>
</g>
<defs>
<clipPath id="clip0_45_206">
<rect width="30" height="30" fill="white"/>
</clipPath>
</defs>
</svg>
